<?xml version="1.0" standalone="no"?>
<!DOCTYPE svg PUBLIC "-//W3C//DTD SVG 20010904//EN"
 "http://www.w3.org/TR/2001/REC-SVG-20010904/DTD/svg10.dtd">
<svg version="1.0" xmlns="http://www.w3.org/2000/svg"
 width="500.000000pt" height="207.000000pt" viewBox="0 0 500.000000 207.000000"
 preserveAspectRatio="xMidYMid meet">

<g transform="translate(0.000000,207.000000) scale(0.100000,-0.100000)"
fill="#000000" stroke="none">
<path d="M733 1508 c-27 -33 -494 -982 -489 -994 14 -35 193 -3 314 56 148 73
265 217 307 376 19 74 19 230 0 310 -16 71 -96 256 -111 261 -6 2 -16 -2 -21
-9z"/>
<path d="M3150 1135 l0 -325 44 0 43 0 5 143 c7 198 30 245 126 255 104 10
122 -26 122 -243 l0 -155 46 0 46 0 -4 188 c-4 217 -11 241 -81 273 -85 38
-188 12 -230 -58 l-22 -38 -3 143 -3 142 -44 0 -45 0 0 -325z"/>
<path d="M1765 1418 c-2 -7 -48 -130 -101 -273 -53 -143 -102 -277 -110 -297
l-13 -38 48 0 48 0 28 75 27 76 151 -3 150 -3 26 -72 26 -73 47 0 c27 0 48 3
47 8 0 4 -50 142 -112 307 l-112 300 -73 3 c-52 2 -74 -1 -77 -10z m139 -226
c31 -84 56 -155 56 -157 0 -3 -54 -5 -121 -5 -111 0 -121 1 -114 18 4 9 29 77
56 151 49 133 59 155 64 149 1 -2 28 -72 59 -156z"/>
<path d="M2847 1332 c-16 -45 -22 -50 -65 -63 -39 -12 -48 -19 -50 -42 -3 -26
-1 -27 42 -27 l45 0 3 -165 c3 -164 3 -165 30 -192 24 -24 36 -27 112 -31 l86
-5 0 36 0 36 -67 3 -68 3 -3 158 -3 157 76 0 75 0 0 35 0 34 -72 3 -73 3 -3
53 c-3 46 -5 52 -26 52 -17 0 -26 -10 -39 -48z"/>
<path d="M2366 1275 c-61 -21 -88 -46 -118 -105 -23 -45 -28 -66 -28 -130 0
-97 30 -164 93 -206 39 -27 49 -29 137 -29 132 0 194 34 215 118 7 26 5 27
-30 27 -31 0 -44 -7 -69 -36 -65 -74 -195 -65 -237 17 -10 21 -19 50 -19 64
l0 25 180 0 180 0 0 53 c-1 157 -151 257 -304 202z m154 -70 c33 -17 60 -61
60 -100 l0 -25 -136 0 -136 0 6 33 c8 39 35 78 67 94 33 17 104 16 139 -2z"/>
<path d="M3837 1277 c-51 -16 -103 -60 -129 -110 -18 -33 -23 -59 -23 -122 0
-102 29 -165 96 -210 41 -28 50 -30 139 -30 89 0 98 2 139 30 67 45 96 108 96
210 0 63 -5 89 -22 122 -54 101 -177 147 -296 110z m170 -83 c38 -24 56 -72
56 -149 0 -120 -44 -175 -143 -175 -99 0 -144 55 -143 176 1 71 16 117 48 144
35 29 138 31 182 4z"/>
<path d="M4345 1275 c-60 -22 -95 -66 -95 -120 0 -24 5 -55 12 -69 15 -34 77
-62 167 -75 87 -14 109 -24 121 -57 16 -40 -3 -71 -50 -84 -74 -20 -151 9
-171 65 -12 32 -17 35 -51 35 -36 0 -38 -2 -38 -32 0 -42 36 -94 80 -115 43
-21 179 -30 231 -14 77 23 118 116 82 188 -27 55 -58 72 -163 89 -118 19 -130
25 -130 69 0 44 29 65 90 65 56 0 91 -17 108 -53 11 -24 19 -27 59 -27 44 0
45 1 38 27 -10 42 -41 79 -82 99 -50 24 -156 29 -208 9z"/>
<path d="M993 978 c-6 -7 -38 -68 -72 -135 -71 -143 -78 -188 -36 -259 40 -68
85 -84 238 -84 114 0 127 2 127 18 0 21 -224 465 -238 470 -5 1 -14 -3 -19
-10z"/>
<path d="M1732 573 l-2 -53 33 1 c29 2 29 2 5 6 -24 4 -27 9 -31 51 l-3 47 -2
-52z"/>
<path d="M1831 604 c0 -11 3 -14 6 -6 3 7 2 16 -1 19 -3 4 -6 -2 -5 -13z"/>
<path d="M1893 570 c0 -30 2 -43 4 -27 2 15 2 39 0 55 -2 15 -4 2 -4 -28z"/>
<path d="M1952 568 l1 -53 6 45 6 45 24 -42 c14 -24 28 -43 33 -43 4 0 7 24 7
53 -2 51 -2 52 -8 12 l-7 -40 -23 38 c-13 20 -27 37 -32 37 -5 0 -8 -24 -7
-52z"/>
<path d="M2080 568 c0 -28 2 -49 4 -47 8 9 13 99 5 99 -5 0 -9 -23 -9 -52z"/>
<path d="M2216 604 c-29 -29 -11 -84 27 -84 30 0 47 18 47 50 0 47 -42 66 -74
34z m54 -9 c18 -21 4 -65 -20 -65 -27 0 -44 34 -30 60 13 24 33 26 50 5z"/>
<path d="M2330 618 c0 -14 33 -98 39 -98 8 0 42 93 36 99 -3 2 -9 -9 -15 -25
-6 -16 -13 -36 -16 -44 -4 -10 -11 -2 -20 24 -13 36 -24 57 -24 44z"/>
<path d="M2476 611 c-4 -5 -13 -29 -21 -53 -12 -34 -12 -39 -1 -25 17 22 56
23 56 0 0 -9 3 -14 6 -10 7 6 -14 77 -26 90 -4 5 -11 4 -14 -2z m24 -43 c0 -5
-7 -8 -15 -8 -17 0 -18 2 -9 25 5 13 8 14 15 3 5 -7 9 -16 9 -20z"/>
<path d="M2572 613 c12 -3 18 -18 21 -51 l3 -47 2 47 c2 35 6 48 20 51 9 3 -1
5 -23 5 -22 0 -32 -2 -23 -5z"/>
<path d="M2673 570 c0 -30 2 -43 4 -27 2 15 2 39 0 55 -2 15 -4 2 -4 -28z"/>
<path d="M2742 608 c-17 -17 -15 -63 3 -78 21 -17 62 -4 68 22 12 46 -40 87
-71 56z m53 -38 c0 -29 -4 -36 -23 -38 -26 -4 -37 17 -28 54 5 19 12 25 29 22
18 -2 22 -9 22 -38z"/>
<path d="M2871 570 l2 -55 7 45 c4 25 4 49 -1 55 -5 5 -8 -13 -8 -45z"/>
<path d="M2930 583 l0 -38 -20 25 c-11 14 -20 21 -20 15 0 -5 11 -23 25 -40
l24 -30 1 53 c0 28 -2 52 -5 52 -3 0 -5 -17 -5 -37z"/>
<path d="M3050 570 c0 -46 2 -50 24 -50 29 0 56 24 56 50 0 26 -27 50 -56 50
-22 0 -24 -4 -24 -50z m60 20 c14 -26 -3 -60 -30 -60 -17 0 -20 7 -20 40 0 33
3 40 20 40 10 0 24 -9 30 -20z"/>
<path d="M3183 570 c0 -30 2 -43 4 -27 2 15 2 39 0 55 -2 15 -4 2 -4 -28z"/>
<path d="M3246 604 c-29 -29 -11 -84 27 -83 22 0 22 0 1 9 -45 18 -35 86 12
77 13 -2 21 0 18 4 -8 14 -41 10 -58 -7z"/>
<path d="M3363 570 c0 -30 2 -43 4 -27 2 15 2 39 0 55 -2 15 -4 2 -4 -28z"/>
<path d="M3425 611 c14 -6 22 -21 26 -52 l6 -44 1 47 c2 35 6 48 20 51 9 3 -3
5 -28 5 -31 0 -39 -2 -25 -7z"/>
<path d="M3536 573 c-18 -53 -20 -66 -5 -40 13 22 45 22 53 1 4 -9 9 -15 11
-12 7 6 -27 98 -36 98 -4 0 -14 -21 -23 -47z m34 1 c0 -8 -6 -14 -14 -14 -9 0
-12 7 -9 20 6 22 23 18 23 -6z"/>
<path d="M3642 573 l-2 -53 33 1 c29 2 29 2 5 6 -24 4 -27 9 -31 51 l-3 47 -2
-52z"/>
<path d="M3750 570 l0 -50 33 1 c30 2 30 2 5 6 -35 5 -39 40 -5 46 l22 4 -22
2 c-13 0 -23 7 -23 15 0 8 10 17 23 19 19 4 18 4 -5 6 -27 1 -28 -1 -28 -49z"/>
<path d="M3920 595 c-5 -14 -12 -38 -16 -53 -4 -23 -3 -24 6 -9 6 9 18 17 27
17 9 0 22 -8 29 -17 10 -13 9 -5 -2 29 -19 59 -31 67 -44 33z m30 -21 c0 -8
-7 -14 -15 -14 -17 0 -18 2 -9 24 7 18 24 12 24 -10z"/>
<path d="M4075 611 c-3 -7 0 -8 9 -5 25 10 42 -7 22 -21 -14 -11 -15 -13 -1
-19 8 -3 15 -13 15 -22 0 -12 -7 -15 -26 -11 -16 3 -22 1 -16 -5 6 -6 18 -8
28 -6 15 3 19 12 19 48 0 38 -3 45 -22 48 -11 2 -24 -2 -28 -7z"/>
<path d="M4178 595 c-16 -36 4 -78 35 -73 16 2 23 11 25 31 2 15 -1 27 -6 27
-5 0 -8 -10 -8 -22 1 -14 -6 -24 -16 -26 -28 -5 -22 67 6 78 21 9 20 9 -2 9
-15 1 -26 -8 -34 -24z"/>
<path d="M4303 613 c-20 -7 -17 -82 3 -90 24 -9 49 10 52 41 5 42 -19 64 -55
49z m42 -43 c0 -28 -4 -35 -20 -35 -13 0 -21 8 -23 23 -5 34 5 54 25 50 13 -2
18 -13 18 -38z"/>
<path d="M4403 604 c-3 -8 -1 -20 5 -26 15 -15 43 8 35 28 -7 19 -32 18 -40
-2z m29 -9 c0 -5 -5 -11 -11 -13 -6 -2 -11 4 -11 13 0 9 5 15 11 13 6 -2 11
-8 11 -13z"/>
<path d="M2140 578 l-1 -33 -15 28 c-9 16 -18 27 -20 24 -7 -7 36 -77 47 -77
5 0 9 20 9 45 0 25 -4 45 -10 45 -5 0 -10 -15 -10 -32z"/>
<path d="M3286 562 c7 -4 14 -16 17 -27 4 -15 5 -14 6 8 1 20 -4 27 -16 27
-12 0 -14 -3 -7 -8z"/>
</g>
</svg>
