<?xml version="1.0" standalone="no"?>
<!DOCTYPE svg PUBLIC "-//W3C//DTD SVG 20010904//EN"
 "http://www.w3.org/TR/2001/REC-SVG-20010904/DTD/svg10.dtd">
<svg version="1.0" xmlns="http://www.w3.org/2000/svg"
 width="73.000000pt" height="79.000000pt" viewBox="0 0 73.000000 79.000000"
 preserveAspectRatio="xMidYMid meet">

<g transform="translate(0.000000,79.000000) scale(0.100000,-0.100000)"
fill="#000000" stroke="none">
<path d="M333 668 c-18 -22 -253 -503 -253 -517 0 -16 57 -10 133 15 65 21
148 99 178 166 31 70 31 179 0 259 -28 75 -44 95 -58 77z"/>
<path d="M437 325 c-20 -42 -37 -84 -37 -95 0 -11 13 -34 29 -52 27 -30 34
-33 105 -36 52 -3 76 -1 76 7 0 17 -119 251 -128 251 -4 0 -24 -34 -45 -75z"/>
</g>
</svg>
